<?xml version="1.0" standalone="no"?>
<!DOCTYPE svg PUBLIC "-//W3C//DTD SVG 20010904//EN"
 "http://www.w3.org/TR/2001/REC-SVG-20010904/DTD/svg10.dtd">
<svg version="1.0" xmlns="http://www.w3.org/2000/svg"
 width="2000.000000pt" height="2000.000000pt" viewBox="0 0 2000.000000 2000.000000"
 preserveAspectRatio="xMidYMid meet">
<metadata>
Created by potrace 1.16, written by Peter Selinger 2001-2019
</metadata>
<g transform="translate(0.000000,2000.000000) scale(0.100000,-0.100000)"
fill="#000000" stroke="none">
<path d="M9740 17107 c-3 -3 -79 -10 -170 -16 -316 -21 -678 -80 -980 -159
-52 -13 -111 -28 -130 -33 -76 -17 -363 -109 -442 -140 -27 -10 -72 -28 -100
-40 -29 -11 -62 -24 -73 -29 -11 -4 -54 -22 -95 -38 -168 -68 -404 -184 -575
-282 -129 -74 -238 -140 -279 -168 -27 -19 -72 -48 -100 -64 -65 -39 -268
-189 -451 -334 -172 -136 -497 -443 -603 -569 -27 -33 -67 -78 -88 -100 -57
-60 -289 -351 -337 -422 -23 -35 -45 -63 -49 -63 -5 0 -8 -5 -8 -12 0 -6 -14
-29 -31 -52 -36 -48 -199 -304 -199 -312 0 -3 -8 -18 -19 -32 -62 -89 -291
-550 -355 -717 -15 -38 -31 -79 -36 -90 -29 -63 -121 -332 -155 -450 -9 -33
-23 -80 -31 -105 -7 -25 -22 -85 -34 -135 -11 -49 -24 -106 -30 -125 -15 -56
-41 -180 -50 -240 -9 -59 -22 -143 -46 -280 -8 -47 -14 -110 -14 -140 -1 -30
-7 -102 -15 -160 -21 -151 -21 -799 0 -936 8 -54 15 -126 15 -159 0 -33 6 -96
14 -140 8 -44 20 -114 26 -155 24 -147 38 -226 54 -295 10 -38 23 -97 31 -130
46 -197 133 -497 166 -570 4 -11 25 -65 45 -120 20 -55 45 -118 55 -141 10
-22 27 -64 39 -93 50 -127 179 -390 262 -534 39 -67 77 -133 84 -147 17 -31
111 -181 179 -285 46 -70 142 -201 183 -250 10 -11 28 -36 42 -55 123 -179
531 -610 774 -818 l88 -76 -6 -66 c-4 -36 -12 -83 -18 -105 -5 -22 -14 -62
-18 -90 -5 -27 -18 -95 -30 -150 -12 -55 -28 -131 -36 -170 -8 -38 -20 -99
-28 -135 -13 -64 -35 -170 -61 -300 -7 -36 -24 -121 -38 -190 -55 -274 -57
-287 -56 -458 0 -92 4 -189 10 -217 5 -27 13 -77 19 -110 23 -143 116 -382
208 -535 101 -168 291 -373 440 -475 40 -27 85 -59 99 -71 l27 -21 -27 -29
c-21 -23 -27 -39 -27 -75 0 -111 121 -344 229 -442 42 -38 54 -64 25 -53 -9 4
-23 1 -30 -5 -10 -8 -53 -10 -147 -5 -221 10 -1174 15 -1297 6 -276 -20 -396
-31 -429 -39 -20 -5 -48 -12 -63 -15 -21 -5 -28 -12 -28 -30 0 -13 7 -26 15
-30 25 -9 223 -35 352 -46 170 -14 9216 -14 9333 0 148 18 239 41 256 64 20
29 5 38 -88 59 -200 43 -232 44 -1188 39 -659 -3 -610 -4 -610 11 0 6 12 20
28 30 38 26 131 146 169 220 47 90 86 218 78 259 -6 33 -53 76 -76 71 -11 -3
-12 18 -1 32 8 11 100 80 145 108 15 10 65 56 112 103 276 278 417 545 490
930 21 111 21 420 -1 529 -8 44 -22 116 -30 160 -9 44 -22 109 -30 145 -16 72
-64 301 -71 340 -7 38 -53 266 -70 345 -8 39 -20 102 -28 140 -7 39 -25 122
-38 185 l-26 115 132 124 c272 256 584 593 691 745 17 24 53 73 80 108 53 67
236 335 275 403 13 22 32 54 41 70 183 312 281 510 403 815 68 171 172 470
187 540 4 19 18 71 30 115 12 44 28 108 36 143 8 34 21 92 29 130 32 141 61
313 84 512 39 321 41 355 41 696 0 339 -7 468 -41 719 -6 44 -15 109 -19 145
-25 221 -170 826 -232 970 -6 14 -14 39 -18 55 -13 51 -136 365 -180 460 -137
294 -257 522 -368 695 -131 205 -237 357 -332 479 -36 45 -81 104 -101 129
-55 71 -274 315 -385 428 -104 107 -358 335 -465 419 -166 131 -367 278 -435
320 -19 11 -84 52 -146 91 -226 143 -431 252 -693 369 -142 64 -345 146 -410
166 -16 5 -39 13 -50 17 -29 13 -197 66 -290 92 -44 12 -91 26 -105 31 -32 10
-161 41 -265 63 -44 10 -100 22 -125 28 -25 6 -72 14 -105 18 -33 4 -83 12
-110 18 -58 13 -186 28 -405 48 -155 15 -740 31 -750 21z m-2689 -3266 c30
-24 32 -83 3 -111 -20 -20 -33 -21 -676 -20 -361 0 -664 3 -673 6 -26 10 -45
63 -34 94 20 52 -3 50 700 50 627 0 658 -1 680 -19z m5266 -3 c42 -40 19 -128
-34 -128 -10 0 -1048 0 -2307 0 l-2289 0 -24 22 c-29 27 -30 67 -2 102 l20 26
2307 0 2306 0 23 -22z m2181 2 c44 -42 17 -129 -40 -130 -13 -1 -266 0 -563 0
-297 0 -552 0 -567 0 -62 0 -90 80 -46 127 l21 23 587 0 c576 0 587 0 608 -20z
m-4280 -371 c104 -23 159 -45 83 -33 -25 3 -88 6 -142 6 -291 -1 -484 -78
-924 -367 -206 -136 -375 -267 -584 -454 -47 -42 -94 -84 -105 -93 -46 -38
-116 -108 -209 -211 l-99 -107 -71 6 c-40 4 -74 8 -76 10 -9 8 225 254 385
405 326 308 837 664 1125 783 184 76 421 97 617 55z m-3785 -261 c52 -27 62
-83 22 -123 l-24 -25 -359 0 -359 0 -23 25 c-39 42 -27 104 25 125 33 14 692
12 718 -2z m2486 5 c0 -5 -45 -41 -100 -80 l-99 -73 -774 0 c-767 0 -774 0
-800 21 -42 33 -32 109 17 129 27 11 1757 13 1756 3z m4042 -22 c28 -35 25
-85 -7 -110 -27 -21 -32 -21 -850 -21 l-823 0 -100 73 c-55 39 -100 75 -101
80 0 4 419 6 931 5 l931 -3 19 -24z m1540 0 c28 -35 25 -85 -7 -110 -26 -21
-36 -21 -526 -21 -301 0 -506 4 -517 10 -31 16 -45 64 -29 96 26 55 22 54 561
52 l499 -3 19 -24z m-4051 -596 c262 -33 531 -103 746 -195 108 -46 284 -136
284 -145 0 -2 -44 13 -97 32 -346 126 -856 223 -1170 223 -51 0 -58 -3 -93
-39 -46 -47 -112 -71 -200 -71 -77 0 -145 18 -190 50 -31 22 -36 22 -99 11
-78 -14 -256 -73 -326 -108 -84 -42 -166 -102 -246 -179 -67 -64 -81 -74 -113
-74 -25 0 -36 5 -36 14 0 24 155 180 232 233 181 125 389 201 663 243 157 24
471 26 645 5z m-2352 -105 l-73 -80 -1156 2 c-1251 3 -1179 0 -1200 55 -10 27
4 70 29 89 14 11 253 13 1245 14 l1228 0 -73 -80z m6399 58 c23 -21 30 -59 17
-93 -18 -46 16 -45 -1301 -45 l-1238 0 -73 80 -73 80 1322 0 1323 0 23 -22z
m-5872 -191 c23 -19 25 -25 16 -50 -18 -48 -13 -134 14 -213 50 -148 23 -148
-49 -1 -47 96 -68 180 -59 232 11 59 35 69 78 32z m-525 -292 c-62 -32 -84
-74 -78 -149 l5 -57 -23 28 c-37 45 -59 110 -48 141 13 37 67 61 134 61 l55 0
-45 -24z m-1646 -164 c34 -32 34 -74 1 -106 l-24 -25 -356 0 c-213 0 -364 4
-375 10 -23 12 -38 58 -30 90 3 15 19 32 40 43 32 16 66 17 377 15 l341 -3 26
-24z m1176 22 c0 -4 -21 -40 -47 -80 l-48 -73 -238 0 -238 0 -24 25 c-42 41
-29 102 26 124 27 11 569 15 569 4z m6839 -4 c54 -19 69 -83 29 -126 l-21 -23
-1006 0 -1006 0 -47 73 c-27 40 -48 76 -48 80 0 12 2063 8 2099 -4z m-6569
-126 c0 -2 -26 -43 -58 -91 -357 -531 -554 -1024 -613 -1527 -13 -113 -13
-405 0 -505 14 -107 83 -318 159 -492 36 -80 14 -53 -32 41 -61 125 -129 297
-171 436 -30 100 -37 141 -43 252 -28 522 111 1042 426 1593 57 101 188 305
245 382 l20 27 33 -56 c19 -30 34 -57 34 -60z m553 -327 c-1 -19 -27 -54 -83
-113 -131 -138 -204 -284 -252 -505 -19 -90 -22 -133 -22 -333 -1 -178 3 -254
17 -335 26 -149 72 -337 114 -463 24 -76 32 -112 25 -119 -12 -12 -23 11 -76
160 -121 345 -174 645 -163 932 12 305 89 520 242 675 67 68 169 138 190 131
6 -2 9 -15 8 -30z m-1193 -190 c0 -2 -16 -38 -35 -80 l-36 -76 -739 2 -739 3
-22 22 c-32 31 -30 80 5 110 l27 23 770 0 c423 0 769 -2 769 -4z m6124 -17
c32 -25 35 -75 7 -110 l-19 -24 -281 -3 -281 -3 -35 77 c-19 42 -35 78 -35 80
0 2 139 4 309 4 297 0 309 -1 335 -21z m1110 0 c34 -27 37 -86 5 -115 -20 -18
-42 -19 -313 -22 -178 -2 -303 1 -319 7 -42 16 -61 53 -48 94 7 19 22 39 34
45 14 7 130 11 318 11 285 1 297 0 323 -20z m-5618 -669 c27 -25 48 -49 46
-53 -1 -5 2 -6 7 -3 5 4 31 -8 57 -25 95 -65 266 -116 405 -121 64 -3 73 -1
90 21 29 35 23 60 -26 126 -40 53 -105 170 -105 190 0 4 7 2 15 -5 8 -7 12
-17 8 -23 -3 -5 -2 -7 4 -4 6 4 60 -27 120 -67 323 -216 662 -342 1038 -385
204 -24 512 -8 735 38 61 12 97 16 101 9 3 -5 9 -49 12 -96 4 -48 15 -134 26
-193 56 -304 134 -492 247 -599 l57 -54 -6 -190 c-8 -280 -48 -461 -147 -672
-108 -230 -257 -413 -455 -559 -627 -462 -1485 -481 -2138 -48 -54 36 -141
106 -194 156 -232 222 -362 453 -440 777 -23 94 -26 133 -30 358 l-5 252 85
133 c156 242 250 461 297 696 16 79 70 448 70 478 0 3 17 -17 38 -44 22 -26
61 -68 88 -93z m-1850 8 c-4 -18 -9 -52 -13 -75 l-6 -43 -644 0 c-401 0 -651
4 -663 10 -29 16 -42 67 -25 100 8 16 20 30 27 33 7 3 309 6 672 6 l659 1 -7
-32z m7474 10 c26 -28 26 -82 0 -108 -20 -20 -33 -20 -764 -20 l-743 0 -6 43
c-4 23 -9 57 -13 75 l-6 32 755 0 756 0 21 -22z m-7959 -647 c26 -32 24 -77
-6 -106 l-24 -25 -395 0 -395 0 -26 23 c-37 31 -37 82 -1 114 l28 24 400 -3
400 -3 19 -24z m6681 -1 c15 -18 18 -33 14 -59 -9 -56 -26 -66 -128 -70 l-91
-3 7 32 c3 18 6 55 6 82 l0 50 86 -3 c77 -4 88 -7 106 -29z m1277 6 c32 -29
29 -88 -5 -115 -26 -20 -38 -21 -356 -21 -336 0 -357 2 -385 39 -24 31 -7 91
31 110 14 6 138 9 357 8 316 -2 338 -3 358 -21z m-6493 -150 c7 -6 22 -42 34
-81 13 -38 45 -122 72 -185 l50 -115 4 -205 c1 -113 6 -233 9 -267 5 -56 4
-63 -12 -63 -36 1 -105 40 -159 92 -146 138 -251 376 -261 593 -4 101 -3 114
19 154 26 51 61 79 109 91 41 10 120 2 135 -14z m4175 -9 c19 -12 44 -42 57
-67 22 -41 23 -54 19 -155 -4 -84 -12 -131 -35 -201 -52 -163 -159 -338 -253
-413 -38 -31 -127 -77 -134 -69 -2 2 1 55 7 118 5 63 8 168 5 232 l-5 117 35
58 c54 89 117 219 153 316 l33 87 42 0 c27 0 54 -8 76 -23z m-5038 -521 c14
-30 28 -64 32 -75 l6 -21 -731 0 c-496 0 -738 3 -751 11 -42 22 -43 95 -2 127
13 9 173 12 719 12 l703 0 24 -54z m7354 32 c29 -27 31 -80 3 -108 -20 -20
-33 -20 -754 -20 l-735 0 -20 26 c-12 15 -21 37 -21 49 0 12 9 34 21 49 l20
26 732 0 731 0 23 -22z m-6748 -956 l20 -28 -52 -19 c-29 -10 -101 -42 -160
-72 -325 -161 -573 -408 -737 -733 -82 -163 -112 -265 -179 -595 -17 -83 -46
-222 -65 -310 -19 -88 -48 -227 -65 -310 -16 -82 -48 -238 -70 -345 -22 -107
-59 -285 -81 -395 -22 -110 -45 -252 -49 -315 -28 -364 80 -739 302 -1045 21
-30 14 -24 -28 20 -153 162 -264 350 -333 566 -54 167 -66 255 -66 454 0 174
2 187 47 405 165 803 205 999 263 1285 76 378 105 479 185 640 149 302 392
547 694 700 102 51 298 124 337 125 9 0 26 -13 37 -28z m5164 -1093 c34 -11
78 -32 97 -46 95 -69 168 -188 179 -292 7 -59 4 -92 -59 -816 -23 -253 -56
-638 -75 -855 -43 -489 -78 -882 -106 -1193 -23 -259 -32 -296 -90 -355 -18
-19 -51 -43 -73 -55 l-41 -22 -2673 -3 -2673 -2 -49 21 c-60 26 -121 90 -143
150 -10 26 -23 123 -32 234 -9 105 -25 287 -35 405 -11 118 -28 319 -39 445
-11 127 -30 334 -41 460 -11 127 -24 280 -30 340 -5 61 -19 214 -30 340 -11
127 -31 361 -46 520 -30 333 -28 417 9 499 26 56 97 140 151 179 16 11 57 31
90 43 l61 23 2793 0 2793 1 62 -21z m-5738 -3715 c33 -30 66 -52 73 -49 7 3
11 1 8 -4 -3 -4 24 -18 59 -30 65 -21 66 -21 1462 -21 769 -1 1413 -3 1431 -4
18 -2 35 0 38 5 3 5 545 9 1249 9 1217 0 1244 0 1308 20 61 19 163 83 196 123
10 13 30 17 87 17 48 0 74 -4 74 -11 0 -34 -74 -143 -145 -215 -92 -92 -180
-143 -301 -174 -75 -19 -115 -20 -1328 -19 -1157 0 -1247 1 -1203 16 65 22 53
27 -19 8 -51 -13 -228 -15 -1378 -15 -1473 0 -1357 -6 -1515 73 -92 46 -202
143 -236 210 -11 21 -29 56 -41 78 -11 22 -23 36 -27 33 -4 -4 -7 -3 -7 2 0 5
33 8 77 5 l78 -3 60 -54z"/>
<path d="M9036 9556 c-33 -14 -75 -38 -95 -54 -35 -28 -98 -118 -90 -127 3 -2
40 7 84 21 163 52 328 51 492 -1 43 -14 81 -25 86 -25 18 0 -36 81 -78 118
-76 67 -125 85 -240 89 -89 3 -107 1 -159 -21z"/>
<path d="M10723 9562 c-70 -25 -130 -68 -169 -122 -39 -53 -44 -74 -13 -65
229 73 393 79 562 20 39 -14 74 -25 79 -25 18 0 -33 78 -77 119 -70 65 -123
84 -235 88 -73 3 -107 -1 -147 -15z"/>
<path d="M9195 9259 c-52 -15 -109 -73 -140 -141 -25 -54 -29 -76 -29 -150 0
-79 3 -92 34 -154 40 -77 85 -118 151 -135 41 -11 53 -10 95 6 64 24 117 80
144 152 18 49 21 73 18 153 -3 82 -8 102 -33 149 -57 103 -146 148 -240 120z"/>
<path d="M10745 9259 c-112 -32 -189 -197 -164 -351 40 -248 283 -318 398
-116 127 222 -26 528 -234 467z"/>
<path d="M9518 8313 c34 -66 114 -140 188 -175 127 -59 294 -49 430 27 90 51
100 68 22 42 -53 -17 -90 -20 -223 -21 l-160 -1 -75 36 c-64 30 -113 62 -189
123 -8 6 -6 -6 7 -31z"/>
<path d="M9913 6236 c-326 -62 -564 -274 -669 -596 -25 -78 -28 -98 -28 -245
-1 -180 9 -229 74 -372 48 -103 87 -159 172 -250 l68 -72 0 -64 c0 -84 29
-140 95 -185 48 -33 52 -34 145 -31 52 1 120 -2 150 -6 40 -5 65 -3 90 7 31
13 39 13 70 0 19 -8 59 -14 88 -13 94 4 116 4 173 -4 134 -18 238 77 239 218
l0 57 69 65 c342 323 359 877 37 1222 -164 176 -366 269 -606 279 -56 2 -125
-2 -167 -10z m321 -146 c260 -66 459 -272 532 -550 22 -84 19 -258 -6 -355
-40 -150 -148 -311 -269 -400 l-41 -30 0 -77 c0 -42 -5 -88 -11 -102 -23 -50
-103 -57 -134 -13 -9 12 -15 44 -15 73 0 37 -4 54 -15 58 -20 7 -35 -24 -35
-73 0 -52 -27 -81 -75 -81 -49 0 -75 31 -75 91 0 50 -16 73 -47 67 -12 -2 -19
-14 -21 -33 -7 -78 -13 -95 -42 -110 -63 -32 -120 13 -120 96 0 26 -5 51 -11
55 -20 12 -34 -16 -34 -67 0 -41 -5 -55 -24 -70 -32 -27 -77 -24 -106 6 -23
22 -25 32 -25 108 l0 85 -76 73 c-114 111 -180 223 -225 379 -7 26 -13 99 -13
170 -1 104 3 138 23 200 36 116 90 213 169 301 73 83 231 175 349 203 89 22
255 20 347 -4z"/>
<path d="M10280 5515 c-52 -16 -107 -65 -126 -112 -24 -55 -18 -143 12 -189
39 -61 85 -88 158 -92 50 -3 69 1 106 20 65 35 103 93 108 167 7 98 -48 178
-142 206 -58 18 -58 18 -116 0z"/>
<path d="M9715 5508 c-101 -37 -152 -139 -121 -243 59 -193 323 -202 385 -12
27 82 -23 200 -103 240 -46 24 -119 31 -161 15z"/>
<path d="M10510 3443 c30 -2 70 -6 89 -9 l34 -5 -25 -13 c-13 -7 -37 -16 -53
-20 -16 -4 -54 -23 -85 -41 -30 -18 -91 -48 -135 -66 -79 -31 -110 -49 -88
-49 6 0 50 18 98 40 48 22 101 40 118 39 18 0 26 -3 19 -6 -24 -10 -1 -22 25
-12 20 7 30 6 44 -7 10 -9 17 -20 14 -23 -2 -4 0 -13 5 -21 8 -13 89 -15 557
-15 577 0 922 6 863 16 -19 3 -44 10 -54 14 -14 6 -17 5 -12 -3 8 -14 -6 -16
-19 -3 -6 5 -70 12 -144 15 -74 4 -143 12 -155 19 -19 11 -16 12 29 15 27 2
55 8 62 14 7 5 17 7 22 4 6 -4 18 -2 28 3 24 13 162 33 174 26 5 -4 9 -2 9 4
0 6 14 9 30 7 21 -2 30 1 30 11 0 8 5 11 10 8 6 -3 10 1 10 10 0 9 -4 13 -10
10 -5 -3 -10 0 -10 7 0 10 -3 9 -11 -2 -8 -11 -12 -12 -16 -2 -2 7 -25 13 -51
14 l-47 1 50 6 50 7 -40 7 c-22 4 -362 6 -755 4 -393 -1 -690 -3 -660 -4z"/>
</g>
</svg>
